<svg id="ic_fb" xmlns="http://www.w3.org/2000/svg" width="30.719" height="30.719" viewBox="0 0 30.719 30.719">
  <path id="Path_4" data-name="Path 4" d="M291.24,508.668q-.192.031-.385.058Q291.048,508.7,291.24,508.668Zm0,0" transform="translate(-273.404 -478.149)" fill="#d1b8a2"/>
  <path id="Path_5" data-name="Path 5" d="M299.523,507.793l-.184.032Zm0,0" transform="translate(-281.38 -477.326)" fill="#d1b8a2"/>
  <path id="Path_6" data-name="Path 6" d="M278.061,510.34q-.225.025-.452.044Q277.836,510.366,278.061,510.34Zm0,0" transform="translate(-260.954 -479.72)" fill="#d1b8a2"/>
  <path id="Path_7" data-name="Path 7" d="M286.662,509.738l-.217.027Zm0,0" transform="translate(-269.259 -479.155)" fill="#d1b8a2"/>
  <path id="Path_8" data-name="Path 8" d="M306.826,506.41l-.162.034Zm0,0" transform="translate(-288.264 -476.026)" fill="#d1b8a2"/>
  <path id="Path_9" data-name="Path 9" d="M324.615,502.113l-.131.036Zm0,0" transform="translate(-305.016 -471.987)" fill="#d1b8a2"/>
  <path id="Path_10" data-name="Path 10" d="M319.2,503.543l-.142.037Zm0,0" transform="translate(-299.916 -473.331)" fill="#d1b8a2"/>
  <path id="Path_11" data-name="Path 11" d="M312.218,505.254l-.151.034Zm0,0" transform="translate(-293.343 -474.939)" fill="#d1b8a2"/>
  <path id="Path_12" data-name="Path 12" d="M273.723,511.09l-.243.018Zm0,0" transform="translate(-257.072 -480.425)" fill="#d1b8a2"/>
  <path id="Path_13" data-name="Path 13" d="M30.719,15.36a15.36,15.36,0,1,0-15.36,15.36c.09,0,.18,0,.27,0V18.759h-3.3V14.913h3.3v-2.83c0-3.282,2-5.068,4.931-5.068a27.164,27.164,0,0,1,2.958.151V10.6H21.5c-1.593,0-1.9.757-1.9,1.868v2.449h3.809l-.5,3.846H19.6V30.126A15.368,15.368,0,0,0,30.719,15.36Zm0,0" fill="#d1b8a2"/>
  <path id="Path_14" data-name="Path 14" d="M265.372,511.43q-.24.015-.481.024Q265.132,511.446,265.372,511.43Zm0,0" transform="translate(-248.998 -480.745)" fill="#d1b8a2"/>
  <path id="Path_15" data-name="Path 15" d="M260.759,511.836l-.255.006Zm0,0" transform="translate(-244.874 -481.127)" fill="#d1b8a2"/>
</svg>
