<svg id="ic_ig" xmlns="http://www.w3.org/2000/svg" width="30.719" height="30.719" viewBox="0 0 30.719 30.719">
  <path id="Path_1" data-name="Path 1" d="M212.88,209.94a2.94,2.94,0,1,1-2.94-2.94A2.94,2.94,0,0,1,212.88,209.94Zm0,0" transform="translate(-194.58 -194.58)" fill="#d1b8a2"/>
  <path id="Path_2" data-name="Path 2" d="M149.591,137.518a2.921,2.921,0,0,0-1.674-1.674,4.88,4.88,0,0,0-1.638-.3c-.93-.042-1.209-.052-3.564-.052s-2.634.009-3.564.051a4.883,4.883,0,0,0-1.638.3,2.922,2.922,0,0,0-1.674,1.674,4.881,4.881,0,0,0-.3,1.638c-.042.93-.052,1.209-.052,3.564s.009,2.634.052,3.564a4.879,4.879,0,0,0,.3,1.638,2.921,2.921,0,0,0,1.674,1.674,4.873,4.873,0,0,0,1.638.3c.93.042,1.209.051,3.564.051s2.634-.009,3.564-.051a4.873,4.873,0,0,0,1.638-.3,2.921,2.921,0,0,0,1.674-1.674,4.884,4.884,0,0,0,.3-1.638c.042-.93.051-1.209.051-3.564s-.009-2.634-.051-3.564A4.875,4.875,0,0,0,149.591,137.518Zm-6.875,9.731a4.529,4.529,0,1,1,4.529-4.529A4.529,4.529,0,0,1,142.715,147.248Zm4.708-8.179a1.058,1.058,0,1,1,1.058-1.058A1.058,1.058,0,0,1,147.423,139.07Zm0,0" transform="translate(-127.356 -127.36)" fill="#d1b8a2"/>
  <path id="Path_3" data-name="Path 3" d="M15.36,0a15.36,15.36,0,1,0,15.36,15.36A15.361,15.361,0,0,0,15.36,0Zm8.767,19a6.471,6.471,0,0,1-.41,2.141,4.51,4.51,0,0,1-2.579,2.579,6.475,6.475,0,0,1-2.141.41c-.941.043-1.241.053-3.636.053s-2.7-.01-3.636-.053a6.475,6.475,0,0,1-2.141-.41A4.51,4.51,0,0,1,7,21.137,6.469,6.469,0,0,1,6.593,19c-.043-.941-.053-1.241-.053-3.636s.01-2.7.053-3.636A6.472,6.472,0,0,1,7,9.582,4.513,4.513,0,0,1,9.582,7a6.477,6.477,0,0,1,2.141-.41c.941-.043,1.241-.053,3.636-.053s2.7.01,3.636.053A6.478,6.478,0,0,1,21.137,7a4.511,4.511,0,0,1,2.579,2.58,6.47,6.47,0,0,1,.41,2.141c.043.941.053,1.241.053,3.636S24.169,18.055,24.126,19Zm0,0" fill="#d1b8a2"/>
</svg>
