<svg xmlns="http://www.w3.org/2000/svg" width="30.719" height="30.719" viewBox="0 0 30.719 30.719">
  <path id="ic_tw" d="M15.36,0a15.36,15.36,0,1,0,15.36,15.36A15.361,15.361,0,0,0,15.36,0Zm7.013,11.976q.01.227.01.456A9.963,9.963,0,0,1,12.352,22.462h0a9.979,9.979,0,0,1-5.4-1.584,7.17,7.17,0,0,0,.841.049,7.074,7.074,0,0,0,4.379-1.509A3.529,3.529,0,0,1,8.874,16.97a3.514,3.514,0,0,0,1.592-.06,3.526,3.526,0,0,1-2.828-3.456c0-.016,0-.03,0-.045a3.5,3.5,0,0,0,1.6.441A3.528,3.528,0,0,1,8.144,9.143a10.009,10.009,0,0,0,7.267,3.684,3.527,3.527,0,0,1,6.008-3.215,7.071,7.071,0,0,0,2.239-.856,3.539,3.539,0,0,1-1.55,1.95,7.031,7.031,0,0,0,2.024-.555,7.165,7.165,0,0,1-1.758,1.826Zm0,0" fill="#d1b8a2"/>
</svg>
